<svg height="494" width="720" xmlns="http://www.w3.org/2000/svg">
<rect height="494" fill="#555" width="720"></rect>
<text fill="#7f7" font-family="Courier New" font-size="12" xml:space="preserve">
<tspan x="10" y="26">8 megabytes installed</tspan>
<tspan x="10" y="42"></tspan>
<tspan x="10" y="58">node_modules</tspan>
<tspan x="10" y="74">└─┬ colorguard@1.2.0 </tspan>
<tspan x="10" y="90">  ├─┬ chalk@1.1.3 </tspan>
<tspan x="10" y="106">  │ ├── ansi-styles@2.2.1 </tspan>
<tspan x="10" y="122">  │ ├── escape-string-regexp@1.0.5 </tspan>
<tspan x="10" y="138">  │ ├─┬ has-ansi@2.0.0 </tspan>
<tspan x="10" y="154">  │ │ └── ansi-regex@2.1.1 </tspan>
<tspan x="10" y="170">  │ ├── strip-ansi@3.0.1 </tspan>
<tspan x="10" y="186">  │ └── supports-color@2.0.0 </tspan>
<tspan x="10" y="202">  ├── color-diff@0.1.7 </tspan>
<tspan x="10" y="218">  ├── log-symbols@1.0.2 </tspan>
<tspan x="10" y="234">  ├── object-assign@4.1.1 </tspan>
<tspan x="10" y="250">  ├─┬ pipetteur@2.0.3 </tspan>
<tspan x="10" y="266">  │ ├── onecolor@3.0.4 </tspan>
<tspan x="10" y="282">  │ └─┬ synesthesia@1.0.1 </tspan>
<tspan x="10" y="298">  │   └── css-color-names@0.0.3 </tspan>
<tspan x="10" y="314">  ├─┬ plur@2.1.2 </tspan>
<tspan x="10" y="330">  │ └── irregular-plurals@1.2.0 </tspan>
<tspan x="10" y="346">  ├─┬ postcss@5.2.17 </tspan>
<tspan x="10" y="362">  │ ├── js-base64@2.1.9 </tspan>
<tspan x="10" y="378">  │ ├── source-map@0.5.6 </tspan>
<tspan x="10" y="394">  │ └─┬ supports-color@3.2.3 </tspan>
<tspan x="10" y="410">  │   └── has-flag@1.0.0 </tspan>
<tspan x="10" y="426">  ├─┬ postcss-reporter@1.4.1 </tspan>
<tspan x="10" y="442">  │ └── lodash@4.17.4 </tspan>
<tspan x="10" y="458">  ├── text-table@0.2.0 </tspan>
<tspan x="10" y="474">  └── yargs@1.3.3</tspan>
</text>
</svg>
